G75*
%MOIN*%
%OFA0B0*%
%FSLAX25Y25*%
%IPPOS*%
%LPD*%
%AMOC8*
5,1,8,0,0,1.08239X$1,22.5*
%
%ADD10R,0.04724X0.03150*%
%ADD11R,0.03150X0.04724*%
%ADD12C,0.06000*%
%ADD13OC8,0.03562*%
%ADD14C,0.01200*%
D10*
X0060100Y0043057D03*
X0060100Y0050143D03*
X0070100Y0050143D03*
X0070100Y0043057D03*
D11*
X0053143Y0081600D03*
X0046057Y0081600D03*
X0046057Y0092100D03*
X0041143Y0092100D03*
X0034057Y0092100D03*
X0053143Y0092100D03*
D12*
X0093907Y0089592D03*
X0093907Y0097466D03*
X0093907Y0105340D03*
X0093907Y0081718D03*
X0093907Y0073844D03*
X0093907Y0065970D03*
X0093907Y0058096D03*
X0093907Y0050222D03*
X0093907Y0042348D03*
X0093907Y0034474D03*
X0007293Y0034474D03*
X0007293Y0042348D03*
X0007293Y0050222D03*
X0007293Y0058096D03*
X0007293Y0065970D03*
X0007293Y0073844D03*
X0007293Y0081718D03*
X0007293Y0089592D03*
X0007293Y0097466D03*
X0007293Y0105340D03*
D13*
X0011604Y0030163D03*
X0025100Y0039100D03*
X0045100Y0054600D03*
X0048100Y0048100D03*
X0053600Y0048100D03*
X0064600Y0053100D03*
X0074100Y0040600D03*
X0075600Y0049100D03*
X0063100Y0081600D03*
X0063100Y0086600D03*
X0063100Y0091600D03*
X0063100Y0096600D03*
X0045100Y0062100D03*
X0033100Y0071600D03*
X0026100Y0078600D03*
X0028100Y0094100D03*
D14*
X0028100Y0089100D01*
X0012844Y0073844D01*
X0007293Y0073844D01*
X0007293Y0050222D02*
X0007415Y0050100D01*
X0027600Y0050100D01*
X0033100Y0055600D01*
X0033100Y0071600D01*
X0026100Y0078600D02*
X0034057Y0086557D01*
X0034057Y0092100D01*
X0041143Y0092100D02*
X0041143Y0101057D01*
X0036600Y0105600D01*
X0007553Y0105600D01*
X0007293Y0105340D01*
X0041143Y0092100D02*
X0046057Y0092100D01*
X0046057Y0081600D01*
X0046057Y0068057D01*
X0041600Y0063600D01*
X0041600Y0050100D01*
X0038100Y0046600D01*
X0032600Y0046600D01*
X0025100Y0039100D01*
X0033600Y0043100D02*
X0020663Y0030163D01*
X0011604Y0030163D01*
X0033600Y0043100D02*
X0058057Y0043100D01*
X0060100Y0043057D01*
X0070100Y0043057D01*
X0071643Y0043057D01*
X0074100Y0040600D01*
X0082100Y0042600D02*
X0075600Y0049100D01*
X0075100Y0049600D01*
X0070643Y0049600D01*
X0070100Y0050143D01*
X0064600Y0053100D02*
X0061057Y0053100D01*
X0060100Y0050143D01*
X0053600Y0052600D02*
X0059100Y0058100D01*
X0076600Y0058100D01*
X0092352Y0042348D01*
X0093907Y0042348D01*
X0093907Y0034474D02*
X0085726Y0034474D01*
X0082100Y0038100D01*
X0082100Y0042600D01*
X0093478Y0050222D02*
X0082100Y0061600D01*
X0058100Y0061600D01*
X0048100Y0051600D01*
X0048100Y0048100D01*
X0053600Y0048100D02*
X0053600Y0052600D01*
X0045100Y0054600D02*
X0056470Y0065970D01*
X0093907Y0065970D01*
X0093907Y0073844D02*
X0056844Y0073844D01*
X0045100Y0062100D01*
X0053143Y0081600D02*
X0063100Y0081600D01*
X0063218Y0081718D01*
X0069100Y0081718D01*
X0069600Y0081218D01*
X0069100Y0081718D02*
X0093907Y0081718D01*
X0093907Y0089592D02*
X0066092Y0089592D01*
X0063100Y0086600D01*
X0057600Y0092100D01*
X0053143Y0092100D01*
X0063100Y0091600D02*
X0068966Y0097466D01*
X0093907Y0097466D01*
X0093907Y0105340D02*
X0071840Y0105340D01*
X0063100Y0096600D01*
X0093478Y0050222D02*
X0093907Y0050222D01*
M02*
