G75*
%MOIN*%
%OFA0B0*%
%FSLAX25Y25*%
%IPPOS*%
%LPD*%
%AMOC8*
5,1,8,0,0,1.08239X$1,22.5*
%
%ADD10R,0.07480X0.06299*%
%ADD11R,0.07874X0.04724*%
%ADD12R,0.04724X0.07874*%
%ADD13R,0.03150X0.04724*%
%ADD14R,0.09055X0.05906*%
%ADD15C,0.06000*%
%ADD16C,0.01200*%
%ADD17OC8,0.03562*%
D10*
X0011604Y0016600D03*
X0024596Y0016600D03*
D11*
X0018600Y0038974D03*
X0018600Y0046848D03*
X0018600Y0054722D03*
X0018600Y0062596D03*
X0018600Y0070470D03*
X0018600Y0078344D03*
X0018600Y0086218D03*
X0018600Y0094092D03*
X0082380Y0094092D03*
X0082380Y0086218D03*
X0082380Y0078344D03*
X0082380Y0070470D03*
X0082380Y0062596D03*
X0082380Y0054722D03*
X0082380Y0046848D03*
X0082380Y0038974D03*
D12*
X0069781Y0031100D03*
X0061907Y0031100D03*
X0054033Y0031100D03*
X0046159Y0031100D03*
X0038285Y0031100D03*
X0030411Y0031100D03*
D13*
X0050057Y0014100D03*
X0057143Y0014100D03*
D14*
X0064911Y0014100D03*
X0091289Y0014100D03*
D15*
X0093907Y0034474D03*
X0093907Y0042348D03*
X0093907Y0050222D03*
X0093907Y0058096D03*
X0093907Y0065970D03*
X0093907Y0073844D03*
X0093907Y0081718D03*
X0093907Y0089592D03*
X0093907Y0097466D03*
X0093907Y0105340D03*
X0007293Y0105340D03*
X0007293Y0097466D03*
X0007293Y0089592D03*
X0007293Y0081718D03*
X0007293Y0073844D03*
X0007293Y0065970D03*
X0007293Y0058096D03*
X0007293Y0050222D03*
X0007293Y0042348D03*
X0007293Y0034474D03*
D16*
X0003100Y0001600D02*
X0001600Y0001600D01*
X0001600Y0002100D02*
X0001600Y0109600D01*
X0031600Y0136100D01*
X0070100Y0135600D01*
X0099100Y0110100D01*
X0099600Y0001600D01*
X0003600Y0001600D01*
X0003100Y0001600D01*
X0011604Y0016600D02*
X0011604Y0030163D01*
X0007293Y0034474D01*
X0007293Y0042348D02*
X0008045Y0043100D01*
X0025600Y0043100D01*
X0030411Y0038289D01*
X0030411Y0031100D01*
X0025100Y0039100D02*
X0018726Y0039100D01*
X0018600Y0038974D01*
X0018100Y0038474D01*
X0018100Y0026600D01*
X0024596Y0020104D01*
X0024596Y0016600D01*
X0045100Y0032159D02*
X0046159Y0031100D01*
X0045100Y0032159D02*
X0045100Y0049600D01*
X0050100Y0054600D01*
X0050100Y0063100D01*
X0046600Y0066600D01*
X0008100Y0066600D01*
X0007470Y0065970D01*
X0007293Y0065970D01*
X0007293Y0058096D02*
X0012600Y0052789D01*
X0012600Y0050100D01*
X0015852Y0046848D01*
X0018600Y0046848D01*
X0018722Y0054600D02*
X0018600Y0054722D01*
X0018722Y0054600D02*
X0045100Y0054600D01*
X0048100Y0048100D02*
X0048100Y0042100D01*
X0053100Y0037100D01*
X0053100Y0032033D01*
X0054033Y0031100D01*
X0055100Y0039100D02*
X0053600Y0040600D01*
X0053600Y0048100D01*
X0055100Y0039100D02*
X0059600Y0039100D01*
X0061600Y0037100D01*
X0061600Y0031407D01*
X0061907Y0031100D01*
X0067100Y0038600D02*
X0064600Y0041100D01*
X0064600Y0053100D01*
X0064600Y0062100D01*
X0055100Y0071600D01*
X0040600Y0071600D01*
X0037600Y0074600D01*
X0037600Y0086600D01*
X0030100Y0094100D01*
X0028100Y0094100D01*
X0018608Y0094100D01*
X0018600Y0094092D01*
X0019092Y0093600D01*
X0018600Y0086218D02*
X0027982Y0086218D01*
X0028600Y0085600D01*
X0033100Y0077600D01*
X0033100Y0071600D01*
X0026100Y0078600D02*
X0018856Y0078600D01*
X0018600Y0078344D01*
X0018600Y0070470D02*
X0017230Y0070470D01*
X0008600Y0079100D01*
X0008600Y0080411D01*
X0007293Y0081718D01*
X0007293Y0089592D02*
X0007293Y0090793D01*
X0018100Y0101600D01*
X0064100Y0101600D01*
X0079600Y0086100D01*
X0082261Y0086100D01*
X0082380Y0086218D01*
X0082380Y0078344D02*
X0076356Y0078344D01*
X0073100Y0081600D01*
X0073100Y0086600D01*
X0063100Y0096600D01*
X0063100Y0091600D02*
X0070100Y0084600D01*
X0070100Y0078600D01*
X0078230Y0070470D01*
X0082380Y0070470D01*
X0082380Y0062596D02*
X0079104Y0062596D01*
X0063100Y0078600D01*
X0063100Y0081600D01*
X0063100Y0086600D02*
X0058100Y0081600D01*
X0058100Y0076600D01*
X0079978Y0054722D01*
X0082380Y0054722D01*
X0080128Y0049100D02*
X0082380Y0046848D01*
X0080128Y0049100D02*
X0075600Y0049100D01*
X0074100Y0040600D02*
X0078380Y0040600D01*
X0082380Y0036600D01*
X0082380Y0023009D01*
X0091289Y0014100D01*
X0078100Y0026600D02*
X0078100Y0032100D01*
X0071600Y0038600D01*
X0067100Y0038600D01*
X0078100Y0026600D02*
X0073100Y0021600D01*
X0053100Y0021600D01*
X0050057Y0018557D01*
X0050057Y0014100D01*
X0057143Y0014100D02*
X0064911Y0014100D01*
X0082380Y0036600D02*
X0082380Y0038974D01*
X0045100Y0062100D02*
X0019096Y0062100D01*
X0018600Y0062596D01*
X0009466Y0097466D02*
X0007293Y0097466D01*
X0009466Y0097466D02*
X0018600Y0106600D01*
X0067600Y0106600D01*
X0080100Y0094100D01*
X0082372Y0094100D01*
X0082380Y0094092D01*
D17*
X0063100Y0091600D03*
X0063100Y0086600D03*
X0063100Y0081600D03*
X0063100Y0096600D03*
X0045100Y0062100D03*
X0045100Y0054600D03*
X0048100Y0048100D03*
X0053600Y0048100D03*
X0064600Y0053100D03*
X0074100Y0040600D03*
X0075600Y0049100D03*
X0033100Y0071600D03*
X0026100Y0078600D03*
X0028100Y0094100D03*
X0025100Y0039100D03*
X0011604Y0030163D03*
M02*
