G75*
%MOIN*%
%OFA0B0*%
%FSLAX25Y25*%
%IPPOS*%
%LPD*%
%AMOC8*
5,1,8,0,0,1.08239X$1,22.5*
%
%ADD10R,0.07880X0.06699*%
%ADD11R,0.08274X0.05124*%
%ADD12R,0.05124X0.08274*%
%ADD13R,0.03550X0.05124*%
%ADD14R,0.09455X0.06306*%
%ADD15C,0.06400*%
D10*
X0011604Y0016600D03*
X0024596Y0016600D03*
D11*
X0018600Y0038974D03*
X0018600Y0046848D03*
X0018600Y0054722D03*
X0018600Y0062596D03*
X0018600Y0070470D03*
X0018600Y0078344D03*
X0018600Y0086218D03*
X0018600Y0094092D03*
X0082380Y0094092D03*
X0082380Y0086218D03*
X0082380Y0078344D03*
X0082380Y0070470D03*
X0082380Y0062596D03*
X0082380Y0054722D03*
X0082380Y0046848D03*
X0082380Y0038974D03*
D12*
X0069781Y0031100D03*
X0061907Y0031100D03*
X0054033Y0031100D03*
X0046159Y0031100D03*
X0038285Y0031100D03*
X0030411Y0031100D03*
D13*
X0050057Y0014100D03*
X0057143Y0014100D03*
D14*
X0064911Y0014100D03*
X0091289Y0014100D03*
D15*
X0093907Y0034474D03*
X0093907Y0042348D03*
X0093907Y0050222D03*
X0093907Y0058096D03*
X0093907Y0065970D03*
X0093907Y0073844D03*
X0093907Y0081718D03*
X0093907Y0089592D03*
X0093907Y0097466D03*
X0093907Y0105340D03*
X0007293Y0105340D03*
X0007293Y0097466D03*
X0007293Y0089592D03*
X0007293Y0081718D03*
X0007293Y0073844D03*
X0007293Y0065970D03*
X0007293Y0058096D03*
X0007293Y0050222D03*
X0007293Y0042348D03*
X0007293Y0034474D03*
M02*
