G75*
%MOIN*%
%OFA0B0*%
%FSLAX25Y25*%
%IPPOS*%
%LPD*%
%AMOC8*
5,1,8,0,0,1.08239X$1,22.5*
%
%ADD10C,0.00800*%
%ADD11C,0.00500*%
%ADD12C,0.00100*%
%ADD13C,0.00400*%
%ADD14C,0.00600*%
D10*
X0006289Y0011876D02*
X0006289Y0021324D01*
X0014163Y0021324D01*
X0012214Y0029553D02*
X0012214Y0110261D01*
X0002372Y0110261D01*
X0002372Y0029553D01*
X0012214Y0029553D01*
X0022037Y0021324D02*
X0028336Y0021324D01*
X0029911Y0019750D01*
X0029911Y0013450D01*
X0028336Y0011876D01*
X0022037Y0011876D01*
X0014163Y0011876D02*
X0006289Y0011876D01*
X0088986Y0029553D02*
X0088986Y0110261D01*
X0098828Y0110261D01*
X0098828Y0029553D01*
X0088986Y0029553D01*
D11*
X0082380Y0031100D02*
X0018600Y0031100D01*
X0018600Y0125982D01*
X0082380Y0125982D01*
X0082380Y0031100D01*
X0089911Y0019021D02*
X0066289Y0019021D01*
X0066289Y0009179D01*
X0089911Y0009179D01*
X0089911Y0019021D01*
X0019600Y0020600D02*
X0019600Y0012600D01*
D12*
X0010624Y0022087D02*
X0009623Y0022087D01*
X0010124Y0022087D02*
X0010124Y0023588D01*
X0009623Y0023088D01*
X0009151Y0023338D02*
X0008901Y0023588D01*
X0008400Y0023588D01*
X0008150Y0023338D01*
X0008150Y0022337D01*
X0008400Y0022087D01*
X0008901Y0022087D01*
X0009151Y0022337D01*
X0015650Y0036650D02*
X0016651Y0038151D01*
X0017123Y0038151D02*
X0017874Y0038151D01*
X0018124Y0037901D01*
X0018124Y0037651D01*
X0017874Y0037401D01*
X0017123Y0037401D01*
X0017123Y0038151D02*
X0017123Y0036650D01*
X0017874Y0036650D01*
X0018124Y0036900D01*
X0018124Y0037150D01*
X0017874Y0037401D01*
X0018597Y0037401D02*
X0019097Y0037401D01*
X0019597Y0038151D02*
X0018597Y0038151D01*
X0018597Y0036650D01*
X0019597Y0036650D01*
X0020070Y0036650D02*
X0021071Y0036650D01*
X0021543Y0037401D02*
X0022544Y0037401D01*
X0023016Y0037401D02*
X0023767Y0037401D01*
X0024017Y0037150D01*
X0024017Y0036900D01*
X0023767Y0036650D01*
X0023016Y0036650D01*
X0023016Y0038151D01*
X0023767Y0038151D01*
X0024017Y0037901D01*
X0024017Y0037651D01*
X0023767Y0037401D01*
X0024490Y0037401D02*
X0025490Y0037401D01*
X0025490Y0037651D02*
X0025490Y0036650D01*
X0025963Y0036900D02*
X0026213Y0036650D01*
X0026713Y0036650D01*
X0026964Y0036900D01*
X0026964Y0037150D01*
X0026713Y0037401D01*
X0026213Y0037401D01*
X0025963Y0037651D01*
X0025963Y0037901D01*
X0026213Y0038151D01*
X0026713Y0038151D01*
X0026964Y0037901D01*
X0027436Y0038151D02*
X0027436Y0036650D01*
X0028437Y0036650D01*
X0027936Y0037401D02*
X0027436Y0037401D01*
X0027436Y0038151D02*
X0028437Y0038151D01*
X0025490Y0037651D02*
X0024990Y0038151D01*
X0024490Y0037651D01*
X0024490Y0036650D01*
X0021071Y0038151D02*
X0020070Y0038151D01*
X0020070Y0036650D01*
X0020070Y0037401D02*
X0020570Y0037401D01*
X0016651Y0036650D02*
X0015650Y0038151D01*
X0053703Y0010801D02*
X0053703Y0009300D01*
X0053703Y0009800D02*
X0054454Y0009800D01*
X0054704Y0010051D01*
X0054704Y0010551D01*
X0054454Y0010801D01*
X0053703Y0010801D01*
X0054204Y0009800D02*
X0054704Y0009300D01*
X0055177Y0009550D02*
X0055427Y0009300D01*
X0055927Y0009300D01*
X0056178Y0009550D01*
X0056178Y0010051D01*
X0055927Y0010301D01*
X0055677Y0010301D01*
X0055177Y0010051D01*
X0055177Y0010801D01*
X0056178Y0010801D01*
D13*
X0038085Y0039174D02*
X0033481Y0039174D01*
X0035016Y0040709D01*
X0033481Y0042243D01*
X0038085Y0042243D01*
X0038085Y0043778D02*
X0038085Y0046080D01*
X0037318Y0046847D01*
X0034248Y0046847D01*
X0033481Y0046080D01*
X0033481Y0043778D01*
X0038085Y0043778D01*
X0038085Y0048382D02*
X0033481Y0048382D01*
X0035016Y0052986D02*
X0033481Y0054520D01*
X0038085Y0054520D01*
X0038085Y0052986D02*
X0038085Y0056055D01*
X0038085Y0051451D02*
X0038085Y0048382D01*
X0038485Y0075040D02*
X0041554Y0075040D01*
X0043089Y0075807D02*
X0043856Y0075040D01*
X0045391Y0075040D01*
X0046158Y0075807D01*
X0046158Y0076575D01*
X0045391Y0077342D01*
X0043856Y0077342D01*
X0043089Y0078109D01*
X0043089Y0078877D01*
X0043856Y0079644D01*
X0045391Y0079644D01*
X0046158Y0078877D01*
X0047693Y0079644D02*
X0049995Y0079644D01*
X0050762Y0078877D01*
X0050762Y0077342D01*
X0049995Y0076575D01*
X0047693Y0076575D01*
X0047693Y0075040D02*
X0047693Y0079644D01*
X0052297Y0077342D02*
X0055366Y0077342D01*
X0056901Y0078109D02*
X0058435Y0079644D01*
X0058435Y0075040D01*
X0056901Y0075040D02*
X0059970Y0075040D01*
X0061505Y0075040D02*
X0064574Y0078109D01*
X0064574Y0078877D01*
X0063807Y0079644D01*
X0062272Y0079644D01*
X0061505Y0078877D01*
X0061505Y0075040D02*
X0064574Y0075040D01*
X0066109Y0075040D02*
X0069178Y0075040D01*
X0067643Y0077342D02*
X0066109Y0077342D01*
X0066109Y0079644D02*
X0066109Y0075040D01*
X0066109Y0079644D02*
X0069178Y0079644D01*
X0041554Y0079644D02*
X0038485Y0079644D01*
X0038485Y0075040D01*
X0038485Y0077342D02*
X0040020Y0077342D01*
X0081250Y0009018D02*
X0080483Y0008250D01*
X0080483Y0007483D01*
X0081250Y0006716D01*
X0082785Y0006716D01*
X0083552Y0005948D01*
X0083552Y0005181D01*
X0082785Y0004414D01*
X0081250Y0004414D01*
X0080483Y0005181D01*
X0081250Y0009018D02*
X0082785Y0009018D01*
X0083552Y0008250D01*
X0085087Y0009018D02*
X0085087Y0004414D01*
X0086621Y0005948D01*
X0088156Y0004414D01*
X0088156Y0009018D01*
X0089691Y0007483D02*
X0091225Y0009018D01*
X0091225Y0004414D01*
X0089691Y0004414D02*
X0092760Y0004414D01*
D14*
X0054781Y0011738D02*
X0052419Y0011738D01*
X0052419Y0016462D02*
X0054781Y0016462D01*
M02*
