G75*
%MOIN*%
%OFA0B0*%
%FSLAX25Y25*%
%IPPOS*%
%LPD*%
%AMOC8*
5,1,8,0,0,1.08239X$1,22.5*
%
%ADD10C,0.00600*%
%ADD11C,0.00100*%
D10*
X0056766Y0044825D02*
X0056766Y0047187D01*
X0061491Y0047187D02*
X0061491Y0044825D01*
X0066766Y0044825D02*
X0066766Y0047187D01*
X0071491Y0047187D02*
X0071491Y0044825D01*
X0049809Y0078644D02*
X0047447Y0078644D01*
X0047447Y0083369D02*
X0049809Y0083369D01*
X0049809Y0089144D02*
X0047447Y0089144D01*
X0047447Y0093869D02*
X0049809Y0093869D01*
X0037809Y0093869D02*
X0035447Y0093869D01*
X0035447Y0089144D02*
X0037809Y0089144D01*
D11*
X0054328Y0046360D02*
X0054579Y0046110D01*
X0055579Y0046110D01*
X0055830Y0046360D01*
X0055830Y0046860D01*
X0055579Y0047111D01*
X0055579Y0047583D02*
X0055830Y0047833D01*
X0055830Y0048334D01*
X0055579Y0048584D01*
X0055329Y0048584D01*
X0054328Y0047583D01*
X0054328Y0048584D01*
X0054579Y0047111D02*
X0054328Y0046860D01*
X0054328Y0046360D01*
X0072428Y0045530D02*
X0072428Y0044530D01*
X0072428Y0044057D02*
X0072929Y0043557D01*
X0072929Y0043807D02*
X0072929Y0043056D01*
X0072428Y0043056D02*
X0073930Y0043056D01*
X0073930Y0043807D01*
X0073679Y0044057D01*
X0073179Y0044057D01*
X0072929Y0043807D01*
X0073429Y0044530D02*
X0073930Y0045030D01*
X0072428Y0045030D01*
X0051578Y0084306D02*
X0051578Y0085808D01*
X0050828Y0085808D01*
X0050577Y0085557D01*
X0050577Y0085057D01*
X0050828Y0084807D01*
X0051578Y0084807D01*
X0051078Y0084807D02*
X0050577Y0084306D01*
X0050105Y0085057D02*
X0049104Y0085057D01*
X0049354Y0084306D02*
X0049354Y0085808D01*
X0050105Y0085057D01*
X0049855Y0094806D02*
X0049354Y0094806D01*
X0049104Y0095057D01*
X0049104Y0095307D01*
X0049354Y0095557D01*
X0049605Y0095557D01*
X0049354Y0095557D02*
X0049104Y0095807D01*
X0049104Y0096057D01*
X0049354Y0096308D01*
X0049855Y0096308D01*
X0050105Y0096057D01*
X0050577Y0096057D02*
X0050577Y0095557D01*
X0050828Y0095307D01*
X0051578Y0095307D01*
X0051078Y0095307D02*
X0050577Y0094806D01*
X0050105Y0095057D02*
X0049855Y0094806D01*
X0050577Y0096057D02*
X0050828Y0096308D01*
X0051578Y0096308D01*
X0051578Y0094806D01*
X0039578Y0094806D02*
X0039578Y0096308D01*
X0038828Y0096308D01*
X0038577Y0096057D01*
X0038577Y0095557D01*
X0038828Y0095307D01*
X0039578Y0095307D01*
X0039078Y0095307D02*
X0038577Y0094806D01*
X0038105Y0094806D02*
X0037104Y0095807D01*
X0037104Y0096057D01*
X0037354Y0096308D01*
X0037855Y0096308D01*
X0038105Y0096057D01*
X0038105Y0094806D02*
X0037104Y0094806D01*
M02*
