G75*
%MOIN*%
%OFA0B0*%
%FSLAX25Y25*%
%IPPOS*%
%LPD*%
%AMOC8*
5,1,8,0,0,1.08239X$1,22.5*
%
%ADD10R,0.07880X0.06699*%
%ADD11R,0.08274X0.05124*%
%ADD12R,0.05124X0.08274*%
%ADD13R,0.03550X0.05124*%
%ADD14R,0.09455X0.06306*%
%ADD15C,0.06400*%
D10*
X0010632Y0016006D03*
X0023624Y0016006D03*
D11*
X0017628Y0038380D03*
X0017628Y0046254D03*
X0017628Y0054128D03*
X0017628Y0062002D03*
X0017628Y0069876D03*
X0017628Y0077750D03*
X0017628Y0085624D03*
X0017628Y0093498D03*
X0081408Y0093498D03*
X0081408Y0085624D03*
X0081408Y0077750D03*
X0081408Y0069876D03*
X0081408Y0062002D03*
X0081408Y0054128D03*
X0081408Y0046254D03*
X0081408Y0038380D03*
D12*
X0068809Y0030506D03*
X0060935Y0030506D03*
X0053061Y0030506D03*
X0045187Y0030506D03*
X0037313Y0030506D03*
X0029439Y0030506D03*
D13*
X0049085Y0013506D03*
X0056172Y0013506D03*
D14*
X0063939Y0013506D03*
X0090317Y0013506D03*
D15*
X0092935Y0033880D03*
X0092935Y0041754D03*
X0092935Y0049628D03*
X0092935Y0057502D03*
X0092935Y0065376D03*
X0092935Y0073250D03*
X0092935Y0081124D03*
X0092935Y0088998D03*
X0092935Y0096872D03*
X0092935Y0104746D03*
X0006321Y0104746D03*
X0006321Y0096872D03*
X0006321Y0088998D03*
X0006321Y0081124D03*
X0006321Y0073250D03*
X0006321Y0065376D03*
X0006321Y0057502D03*
X0006321Y0049628D03*
X0006321Y0041754D03*
X0006321Y0033880D03*
M02*
