G75*
%MOIN*%
%OFA0B0*%
%FSLAX25Y25*%
%IPPOS*%
%LPD*%
%AMOC8*
5,1,8,0,0,1.08239X$1,22.5*
%
%ADD10C,0.00600*%
%ADD11C,0.00400*%
%ADD12C,0.00100*%
%ADD13C,0.00591*%
D10*
X0014520Y0020603D02*
X0015588Y0019535D01*
X0018791Y0019535D01*
X0018791Y0017400D02*
X0018791Y0023805D01*
X0015588Y0023805D01*
X0014520Y0022738D01*
X0014520Y0020603D01*
X0020966Y0019535D02*
X0020966Y0018468D01*
X0022033Y0017400D01*
X0024168Y0017400D01*
X0025236Y0018468D01*
X0024168Y0020603D02*
X0022033Y0020603D01*
X0020966Y0019535D01*
X0020966Y0022738D02*
X0022033Y0023805D01*
X0024168Y0023805D01*
X0025236Y0022738D01*
X0025236Y0021670D01*
X0024168Y0020603D01*
X0027411Y0023805D02*
X0031682Y0023805D01*
X0031682Y0017400D01*
X0027411Y0017400D01*
X0029546Y0020603D02*
X0031682Y0020603D01*
X0033843Y0021670D02*
X0035979Y0021670D01*
X0034911Y0022738D02*
X0034911Y0018468D01*
X0033843Y0017400D01*
X0038154Y0018468D02*
X0038154Y0020603D01*
X0039221Y0021670D01*
X0041356Y0021670D01*
X0042424Y0020603D01*
X0042424Y0018468D01*
X0041356Y0017400D01*
X0039221Y0017400D01*
X0038154Y0018468D01*
X0044599Y0018468D02*
X0045667Y0017400D01*
X0048870Y0017400D01*
X0048870Y0023805D01*
X0045667Y0023805D01*
X0044599Y0022738D01*
X0044599Y0021670D01*
X0045667Y0020603D01*
X0048870Y0020603D01*
X0051045Y0021670D02*
X0054247Y0021670D01*
X0055315Y0020603D01*
X0055315Y0018468D01*
X0054247Y0017400D01*
X0051045Y0017400D01*
X0051045Y0016332D02*
X0051045Y0021670D01*
X0051045Y0016332D02*
X0052112Y0015265D01*
X0053180Y0015265D01*
X0057490Y0017400D02*
X0057490Y0020603D01*
X0058558Y0021670D01*
X0061761Y0021670D01*
X0061761Y0017400D01*
X0063922Y0017400D02*
X0066058Y0017400D01*
X0064990Y0017400D02*
X0064990Y0021670D01*
X0066058Y0021670D01*
X0064990Y0023805D02*
X0064990Y0024873D01*
X0068233Y0020603D02*
X0068233Y0017400D01*
X0068233Y0020603D02*
X0069300Y0021670D01*
X0071435Y0021670D01*
X0072503Y0020603D01*
X0074665Y0021670D02*
X0076800Y0021670D01*
X0075732Y0022738D02*
X0075732Y0018468D01*
X0074665Y0017400D01*
X0072503Y0017400D02*
X0072503Y0023805D01*
X0072462Y0045419D02*
X0072462Y0047781D01*
X0067738Y0047781D02*
X0067738Y0045419D01*
X0062462Y0045419D02*
X0062462Y0047781D01*
X0057738Y0047781D02*
X0057738Y0045419D01*
X0045667Y0020603D02*
X0044599Y0019535D01*
X0044599Y0018468D01*
X0048419Y0079238D02*
X0050781Y0079238D01*
X0050781Y0083962D02*
X0048419Y0083962D01*
X0048419Y0089738D02*
X0050781Y0089738D01*
X0050781Y0094462D02*
X0048419Y0094462D01*
X0038781Y0094462D02*
X0036419Y0094462D01*
X0036419Y0089738D02*
X0038781Y0089738D01*
D11*
X0032529Y0011404D02*
X0030994Y0011404D01*
X0030227Y0010637D01*
X0033296Y0007567D01*
X0032529Y0006800D01*
X0030994Y0006800D01*
X0030227Y0007567D01*
X0030227Y0010637D01*
X0028692Y0007567D02*
X0027925Y0007567D01*
X0027925Y0006800D01*
X0028692Y0006800D01*
X0028692Y0007567D01*
X0026390Y0006800D02*
X0023321Y0006800D01*
X0024856Y0006800D02*
X0024856Y0011404D01*
X0026390Y0009869D01*
X0032529Y0011404D02*
X0033296Y0010637D01*
X0033296Y0007567D01*
X0034831Y0009869D02*
X0036365Y0006800D01*
X0037900Y0009869D01*
D12*
X0055550Y0046703D02*
X0055300Y0046954D01*
X0055300Y0047454D01*
X0055550Y0047704D01*
X0055300Y0048177D02*
X0056301Y0049178D01*
X0056551Y0049178D01*
X0056801Y0048927D01*
X0056801Y0048427D01*
X0056551Y0048177D01*
X0056551Y0047704D02*
X0056801Y0047454D01*
X0056801Y0046954D01*
X0056551Y0046703D01*
X0055550Y0046703D01*
X0055300Y0048177D02*
X0055300Y0049178D01*
X0073400Y0046124D02*
X0073400Y0045123D01*
X0073400Y0044651D02*
X0073900Y0044150D01*
X0073900Y0044401D02*
X0073900Y0043650D01*
X0073400Y0043650D02*
X0074901Y0043650D01*
X0074901Y0044401D01*
X0074651Y0044651D01*
X0074151Y0044651D01*
X0073900Y0044401D01*
X0074401Y0045123D02*
X0074901Y0045624D01*
X0073400Y0045624D01*
X0052550Y0084900D02*
X0052550Y0086401D01*
X0051799Y0086401D01*
X0051549Y0086151D01*
X0051549Y0085651D01*
X0051799Y0085400D01*
X0052550Y0085400D01*
X0052050Y0085400D02*
X0051549Y0084900D01*
X0051077Y0085651D02*
X0050076Y0085651D01*
X0050326Y0086401D02*
X0051077Y0085651D01*
X0050326Y0086401D02*
X0050326Y0084900D01*
X0050326Y0095400D02*
X0050827Y0095400D01*
X0051077Y0095650D01*
X0051549Y0095400D02*
X0052050Y0095900D01*
X0051799Y0095900D02*
X0052550Y0095900D01*
X0052550Y0095400D02*
X0052550Y0096901D01*
X0051799Y0096901D01*
X0051549Y0096651D01*
X0051549Y0096151D01*
X0051799Y0095900D01*
X0051077Y0096651D02*
X0050827Y0096901D01*
X0050326Y0096901D01*
X0050076Y0096651D01*
X0050076Y0096401D01*
X0050326Y0096151D01*
X0050076Y0095900D01*
X0050076Y0095650D01*
X0050326Y0095400D01*
X0050326Y0096151D02*
X0050576Y0096151D01*
X0040550Y0095900D02*
X0039799Y0095900D01*
X0039549Y0096151D01*
X0039549Y0096651D01*
X0039799Y0096901D01*
X0040550Y0096901D01*
X0040550Y0095400D01*
X0040050Y0095900D02*
X0039549Y0095400D01*
X0039077Y0095400D02*
X0038076Y0096401D01*
X0038076Y0096651D01*
X0038326Y0096901D01*
X0038827Y0096901D01*
X0039077Y0096651D01*
X0039077Y0095400D02*
X0038076Y0095400D01*
D13*
X0071880Y0033961D02*
X0073320Y0033961D01*
X0073513Y0032056D01*
X0074154Y0031851D01*
X0074752Y0031543D01*
X0076236Y0032754D01*
X0077254Y0031736D01*
X0076043Y0030252D01*
X0076351Y0029654D01*
X0076556Y0029013D01*
X0078461Y0028820D01*
X0078461Y0027380D01*
X0076556Y0027187D01*
X0076351Y0026546D01*
X0076043Y0025948D01*
X0077254Y0024464D01*
X0076236Y0023446D01*
X0074752Y0024657D01*
X0074154Y0024349D01*
X0073306Y0026395D01*
X0073685Y0026607D01*
X0074003Y0026901D01*
X0074245Y0027262D01*
X0074395Y0027669D01*
X0074446Y0028100D01*
X0074393Y0028539D01*
X0074237Y0028952D01*
X0073988Y0029317D01*
X0073659Y0029611D01*
X0073269Y0029820D01*
X0072841Y0029929D01*
X0072399Y0029934D01*
X0071969Y0029834D01*
X0071575Y0029634D01*
X0071240Y0029346D01*
X0070982Y0028987D01*
X0070818Y0028577D01*
X0070755Y0028140D01*
X0070799Y0027700D01*
X0070945Y0027284D01*
X0071186Y0026914D01*
X0071509Y0026612D01*
X0071894Y0026395D01*
X0071046Y0024349D01*
X0070448Y0024657D01*
X0068964Y0023446D01*
X0067946Y0024464D01*
X0069157Y0025948D01*
X0068849Y0026546D01*
X0068644Y0027187D01*
X0066739Y0027380D01*
X0066739Y0028820D01*
X0068644Y0029013D01*
X0068849Y0029654D01*
X0069157Y0030252D01*
X0067946Y0031736D01*
X0068964Y0032754D01*
X0070448Y0031543D01*
X0071046Y0031851D01*
X0071687Y0032056D01*
X0071880Y0033961D01*
X0071865Y0033809D02*
X0073335Y0033809D01*
X0073395Y0033220D02*
X0071805Y0033220D01*
X0071745Y0032631D02*
X0073455Y0032631D01*
X0073557Y0032042D02*
X0071643Y0032042D01*
X0069837Y0032042D02*
X0068253Y0032042D01*
X0068177Y0031453D02*
X0077023Y0031453D01*
X0076947Y0032042D02*
X0075363Y0032042D01*
X0076086Y0032631D02*
X0076358Y0032631D01*
X0076543Y0030864D02*
X0068657Y0030864D01*
X0069138Y0030275D02*
X0076062Y0030275D01*
X0076335Y0029686D02*
X0073519Y0029686D01*
X0074138Y0029097D02*
X0076530Y0029097D01*
X0078461Y0028508D02*
X0074396Y0028508D01*
X0074424Y0027919D02*
X0078461Y0027919D01*
X0077963Y0027330D02*
X0074269Y0027330D01*
X0073830Y0026741D02*
X0076413Y0026741D01*
X0076148Y0026152D02*
X0073407Y0026152D01*
X0073651Y0025562D02*
X0076358Y0025562D01*
X0076838Y0024973D02*
X0073895Y0024973D01*
X0074139Y0024384D02*
X0074223Y0024384D01*
X0075086Y0024384D02*
X0077174Y0024384D01*
X0076585Y0023795D02*
X0075808Y0023795D01*
X0071549Y0025562D02*
X0068842Y0025562D01*
X0069052Y0026152D02*
X0071793Y0026152D01*
X0071371Y0026741D02*
X0068787Y0026741D01*
X0067237Y0027330D02*
X0070929Y0027330D01*
X0070777Y0027919D02*
X0066739Y0027919D01*
X0066739Y0028508D02*
X0070808Y0028508D01*
X0071061Y0029097D02*
X0068670Y0029097D01*
X0068865Y0029686D02*
X0071678Y0029686D01*
X0069114Y0032631D02*
X0068842Y0032631D01*
X0068362Y0024973D02*
X0071305Y0024973D01*
X0071061Y0024384D02*
X0070977Y0024384D01*
X0070114Y0024384D02*
X0068026Y0024384D01*
X0068615Y0023795D02*
X0069392Y0023795D01*
M02*
