%
M48
M72
T01C0.02362
T02C0.03150
%
T01
X10632Y29569
X24128Y38506
X44128Y54006
X47128Y47506
X52628Y47506
X63628Y52506
X73128Y40006
X74628Y48506
X62128Y81006
X62128Y86006
X62128Y91006
X62128Y96006
X44128Y61506
X32128Y71006
X25128Y78006
X27128Y93506
T02
X6321Y96872
X6321Y104746
X6321Y88998
X6321Y81124
X6321Y73250
X6321Y65376
X6321Y57502
X6321Y49628
X6321Y41754
X6321Y33880
X92935Y33880
X92935Y41754
X92935Y49628
X92935Y57502
X92935Y65376
X92935Y73250
X92935Y81124
X92935Y88998
X92935Y96872
X92935Y104746
M30
