%
M48
M72
T01C0.02362
T02C0.03150
%
T01
X11604Y30163
X25100Y39100
X45100Y54600
X48100Y48100
X53600Y48100
X64600Y53100
X74100Y40600
X75600Y49100
X63100Y81600
X63100Y86600
X63100Y91600
X63100Y96600
X45100Y62100
X33100Y71600
X26100Y78600
X28100Y94100
T02
X7293Y97466
X7293Y89592
X7293Y81718
X7293Y73844
X7293Y65970
X7293Y58096
X7293Y50222
X7293Y42348
X7293Y34474
X7293Y105340
X93907Y105340
X93907Y97466
X93907Y89592
X93907Y81718
X93907Y73844
X93907Y65970
X93907Y58096
X93907Y50222
X93907Y42348
X93907Y34474
M30
